<?xml version="1.0" encoding="UTF-8"?> <!-- Creator: CorelDRAW --> <svg xmlns="http://www.w3.org/2000/svg" xmlns:xlink="http://www.w3.org/1999/xlink" xmlns:xodm="http://www.corel.com/coreldraw/odm/2003" xml:space="preserve" width="171.803mm" height="111.938mm" shape-rendering="geometricPrecision" text-rendering="geometricPrecision" image-rendering="optimizeQuality" fill-rule="evenodd" clip-rule="evenodd" viewBox="0 0 373.03 243.05"> <g id="Camada_x0020_1"> <metadata id="CorelCorpID_0Corel-Layer"></metadata> <path fill="#2D0007" fill-rule="nonzero" d="M301.32 91.96c0.02,-0.42 -0.13,-0.85 -0.51,-1.14l-1.87 -1.41c-0.35,-0.26 -0.66,-0.5 -0.99,-0.75 1.47,-1.76 2.55,-3.83 3.37,-5.91 1.62,-4.11 2.57,-8.44 2.92,-12.81 0.5,0.07 0.99,0.13 1.49,0.19 0.51,0.07 0.97,-0.24 0.95,-0.75 -0.05,-6.1 -0.36,-12.21 -0.95,-18.29 -0.29,-2.97 -0.63,-5.93 -1.07,-8.88 -0.45,-2.94 -1.05,-5.89 -2.17,-8.67 -2.07,-5.15 -5.46,-9.84 -9.07,-14.14 -3.47,-4.13 -7.45,-7.92 -12.25,-10.67 -4.77,-2.74 -10.36,-4.41 -15.98,-4.19 -2.6,-2.18 -6.04,-3.36 -9.48,-3.94 -2.39,-0.41 -4.83,-0.55 -7.26,-0.59 -2.77,-0.05 -5.54,0.03 -8.3,0.3 -5.54,0.52 -11.03,1.74 -16.1,3.94 -2.6,1.14 -5,2.55 -7.3,4.16 -2.33,1.63 -4.59,3.35 -7.14,4.67 -2.93,1.51 -6.11,2.57 -9.28,3.56 -3.32,1.03 -6.69,1.93 -10.1,2.67 -0.45,0.1 -0.59,0.56 -0.52,0.92 0.45,2.25 1.55,4.34 3.14,6.06 -2.54,0.57 -5.06,1.15 -7.6,1.72 -2.27,0.51 -5.39,0.85 -6.21,3.31 -0.39,1.14 -0.12,2.38 0.18,3.5 0.28,1.07 0.65,2.11 1.12,3.13 0.95,2.1 2.25,4.05 3.83,5.79 1.3,1.44 4.49,3.78 4.49,3.78 0,0 -3.96,2.09 -3.03,3.97 0.46,0.92 2.43,2.74 4.89,4.34 0.08,0.78 0.22,1.59 0.35,2.41 -3.93,-2.33 -8.31,-4.16 -12.44,-5.15 -17.95,-4.27 -35.22,2.49 -51.34,20.11 -20.57,6.62 -50.51,28.75 -59.02,38.32 -8.54,9.62 -15.81,20.16 -21.61,31.38 -2.9,5.59 -5.42,11.38 -7.51,17.21 -2.68,7.48 -10.18,36.62 -8.88,44.66 0.36,2.25 0.76,4.24 1.22,6.06 -7.98,7.42 -17.8,12.93 -28.43,15.95 -1.39,0.4 -2.42,1.41 -2.77,2.73 -0.34,1.31 0.07,2.65 1.1,3.6 1.04,0.95 2.39,1.69 3.82,2.08 2.84,0.77 5.81,0.39 8.37,-0.03 9.3,-1.53 18.37,-4.21 26.97,-7.97 7.34,6.49 20.56,11.08 39.29,13.65 7.6,1.05 14.09,1.55 20.02,1.55 1.93,0 3.79,-0.06 5.62,-0.16 6.56,-0.39 12.96,-1.77 19.16,-3.13 1.9,-0.41 3.79,-0.83 5.69,-1.22 4.66,-0.94 8.47,-1.47 11.97,-1.63 3.79,-0.18 7.89,0 12.9,0.53 2.63,0.28 5.3,0.68 7.89,1.07 1.53,0.23 3.07,0.45 4.6,0.66 3.78,0.51 8.19,0.83 12.27,-0.72 3.57,-1.35 6.33,-3.93 7.38,-6.9 0.24,-0.67 0.39,-1.38 0.46,-2.09 0.86,-0.33 1.67,-0.72 2.42,-1.16 0.17,-0.1 0.3,-0.2 0.45,-0.31 7.42,4.5 39.18,16.21 53.82,15.71 6.75,-0.23 13.56,-1.75 20.27,-4.36 14.54,-9.08 28.33,-20.95 39.93,-34.35 12.37,-14.3 21.62,-29.73 26.76,-44.63 0.19,-0.56 0.83,-0.86 1.43,-0.68 0.59,0.18 0.92,0.78 0.72,1.34 -1.24,3.6 -2.72,7.21 -4.4,10.81 0.19,-0.22 0.39,-0.44 0.58,-0.66 2.11,-2.4 4.3,-4.88 6.16,-6.79 0.42,-0.43 1.14,-0.47 1.59,-0.07 0.46,0.4 0.5,1.07 0.07,1.5 -1.82,1.88 -3.99,4.33 -6.09,6.72 -2.08,2.35 -4.23,4.79 -6.06,6.68 -12.39,22.69 -32.69,44.43 -56.44,59.97 33.08,5.32 94.21,-5.09 102.6,-11.17 7.17,-5.19 -8.47,-132.18 -70.07,-135.39l-0.02 0.02zm-122.66 143.3c-3.44,1.31 -7.38,1.01 -10.77,0.55 -1.52,-0.2 -3.04,-0.43 -4.55,-0.66 -2.61,-0.39 -5.31,-0.8 -8.01,-1.08 -5.17,-0.56 -9.42,-0.74 -13.37,-0.56 -3.66,0.17 -7.61,0.7 -12.43,1.68 -1.92,0.39 -3.83,0.81 -5.74,1.22 -6.07,1.32 -12.36,2.69 -18.67,3.06 -7.23,0.42 -15.19,-0.01 -25.05,-1.36 -18.48,-2.53 -31.75,-7.22 -38.39,-13.55 -0.43,-0.41 -1.09,-0.52 -1.64,-0.27 -8.64,3.86 -17.77,6.6 -27.14,8.15 -2.36,0.39 -4.83,0.72 -7.08,0.1 -0.98,-0.27 -1.9,-0.77 -2.61,-1.42 -0.42,-0.39 -0.35,-0.83 -0.31,-1.01 0.05,-0.18 0.22,-0.61 0.8,-0.78 11.34,-3.22 21.8,-9.16 30.22,-17.17 0.35,-0.34 0.5,-0.82 0.37,-1.28 -0.52,-1.93 -0.95,-4.08 -1.35,-6.56 -1.16,-7.19 6.1,-35.95 8.77,-43.37 2.05,-5.72 4.53,-11.4 7.37,-16.89 5.7,-11.01 12.84,-21.39 21.23,-30.82 8.38,-9.43 37.97,-31.29 58.11,-37.61 0.25,-0.08 0.47,-0.22 0.64,-0.41 15.42,-16.98 31.81,-23.55 48.7,-19.53 4.71,1.13 9.77,3.42 13.97,6.32 1.41,5.54 3.89,11.89 7.48,19.14 4.37,9.75 3.27,15.61 2.48,19.88 -0.51,2.73 -0.94,5.11 0.3,7.43 0.07,4.61 1.27,9.21 3.49,13.29 0.22,0.4 0.43,0.8 0.66,1.19 1.5,2.65 3.04,5.39 2.05,7.72 -0.53,1.24 -1.78,2.32 -3.79,3.28 -2.55,1.22 -8.61,3.4 -15.16,3.84 -0.39,0.02 -0.76,0.02 -1.14,0.03 -3.29,-0.39 -9.4,-3.1 -12.48,-17.14 -0.08,-0.38 -0.31,-0.7 -0.66,-0.92 -0.34,-0.22 -0.75,-0.28 -1.16,-0.2 -0.83,0.16 -1.36,0.93 -1.2,1.7 0.65,2.99 2.23,8.68 5.39,13.13 0.72,1.02 1.51,1.91 2.33,2.68 -3.54,-0.92 -6.45,-2.65 -8.68,-5.21 -2.87,-3.31 -6.14,-6.74 -9.98,-10.51 -0.4,-0.39 -1,-0.52 -1.55,-0.33 -0.54,0.19 -0.91,0.66 -0.94,1.2 -0.48,8.39 -0.45,16.86 0.11,25.15 0.02,0.27 0.04,0.56 0.06,0.83 -0.29,0.08 -0.48,0.14 -0.65,0.22 -0.1,0.05 -0.16,0.09 -0.22,0.13 -0.13,0.08 -0.28,0.15 -0.41,0.25 -0.07,0.07 -0.12,0.11 -0.17,0.16 -0.14,0.13 -0.29,0.25 -0.41,0.4 -0.05,0.06 -0.08,0.11 -0.12,0.17 -0.11,0.15 -0.23,0.31 -0.31,0.47 -0.08,0.15 -0.14,0.31 -0.22,0.47 -0.04,0.08 -0.07,0.16 -0.11,0.25 -0.07,0.22 -0.13,0.45 -0.18,0.69 -0.06,0.34 -0.08,0.6 -0.1,0.88 0,0.36 0,0.61 0.02,0.88 0,0.1 0.02,0.2 0.04,0.3 0.04,0.2 0.06,0.42 0.11,0.64 0.08,0.34 0.18,0.68 0.31,1.03 0.53,1.38 0.95,2.76 1.27,4.07 0.94,3.92 0.98,7.22 0.53,7.98 -0.07,0 -0.19,-0.03 -0.3,-0.06 -0.13,-0.02 -0.24,-0.03 -0.4,-0.08 -2.04,-0.73 -5.88,-3.25 -8.83,-5.19l-0.23 -0.15c-0.11,-0.08 -0.27,-0.18 -0.45,-0.32 -0.34,-0.25 -0.8,-0.59 -1.32,-0.99 -0.08,-0.06 -0.16,-0.11 -0.24,-0.18 -6.72,-5.13 -11.39,-8.24 -14.35,-8.49 -0.23,-0.02 -0.45,-0.02 -0.65,0 -0.72,0.06 -1.29,0.3 -1.76,0.73 -0.77,0.72 -1.15,1.53 -1.14,2.41 0,0.45 0.13,0.9 0.34,1.33 -1.82,-1.1 -3.42,-1.72 -4.78,-1.6 -0.93,0.08 -1.73,0.49 -2.32,1.17 -0.66,0.77 -0.93,1.55 -0.87,2.35 0.02,0.27 0.07,0.53 0.17,0.82 0.18,0.55 0.48,1.11 0.91,1.69 0.42,0.58 0.94,1.18 1.56,1.81 -0.25,-0.06 -0.5,-0.1 -0.74,-0.11 -0.24,-0.01 -0.48,0 -0.72,0.02 -0.94,0.11 -1.73,0.58 -2.36,1.38 -2.26,2.91 0.75,5.48 4.24,8.46 -0.17,-0.07 -0.34,-0.12 -0.52,-0.17 -0.51,-0.15 -0.89,-0.2 -1.27,-0.19 -0.19,0 -0.37,0.02 -0.57,0.06 -0.86,0.16 -1.57,0.66 -2.11,1.48 -0.39,0.58 -0.6,1.13 -0.69,1.66 -0.02,0.18 -0.04,0.35 -0.04,0.53 0.02,1.58 1.23,3.09 3.14,4.92 0.63,0.61 1.34,1.26 2.11,1.97 1.03,0.94 2.1,1.86 3.15,2.69 1.04,0.83 2.05,1.58 2.97,2.18 0.14,0.1 0.34,0.23 0.54,0.36 0.06,0.05 0.13,0.09 0.21,0.15 0.16,0.1 0.33,0.23 0.52,0.35 0.1,0.07 0.19,0.14 0.3,0.2 0.27,0.18 0.54,0.38 0.86,0.6 0.1,0.07 0.21,0.14 0.3,0.22 0.3,0.22 0.62,0.43 0.97,0.67 -2.28,4.82 -5.36,9.2 -9.13,13.07 -2.67,2.75 -5.63,5.21 -8.8,7.3 -0.46,0.31 -0.69,0.84 -0.59,1.36 0.1,0.52 0.52,0.94 1.06,1.07l0.22 0.06c0.19,0.05 0.39,0.09 0.57,0.14 8.06,1.81 16.38,2.25 23.45,2.44 2.89,0.08 5.82,0.1 8.65,0.11l0.22 0c19.96,1.19 31.32,5.36 34.72,12.73 -0.01,0.66 -0.11,1.31 -0.33,1.91 -0.78,2.22 -2.92,4.18 -5.72,5.24l-0.01 0.01zm-27.74 -22.54c-1.3,-2.1 -2.56,-4.46 -4.03,-7.54 -1.55,-3.23 -3.06,-6.5 -4.53,-9.72 4.23,2.97 9.43,6.59 14.83,10.27 0.08,0.06 0.17,0.11 0.25,0.17 0.4,0.27 0.81,0.55 1.22,0.83 5.06,3.44 10.19,6.85 14.86,9.81 -5.81,-1.97 -13.32,-3.24 -22.6,-3.83zm-13.83 -20.95c0.22,0.15 0.45,0.31 0.66,0.47 2.07,4.55 4.25,9.37 6.5,14.07 1.18,2.49 2.25,4.52 3.31,6.34 -2.11,-0.01 -4.25,-0.05 -6.35,-0.1 -6.27,-0.17 -13.51,-0.53 -20.62,-1.9 2.39,-1.78 4.65,-3.76 6.74,-5.91 3.83,-3.94 6.96,-8.4 9.38,-13.23 0.13,0.09 0.24,0.17 0.37,0.26zm51.43 30.25c-9.71,-4.4 -35.16,-22.19 -47.97,-31.2 -0.25,-0.18 -0.52,-0.36 -0.76,-0.53 -0.33,-0.24 -0.66,-0.47 -0.98,-0.68 -0.63,-0.44 -1.22,-0.85 -1.78,-1.25 -0.54,-0.38 -1,-0.7 -1.43,-1 -0.16,-0.11 -0.3,-0.22 -0.45,-0.32 -0.25,-0.18 -0.51,-0.35 -0.74,-0.51 -0.14,-0.1 -0.3,-0.22 -0.45,-0.31 -0.29,-0.2 -0.54,-0.37 -0.77,-0.53 -0.1,-0.07 -0.18,-0.13 -0.27,-0.18 -0.24,-0.16 -0.46,-0.32 -0.63,-0.42 -1.72,-1.14 -3.82,-2.82 -5.77,-4.61 -3.12,-2.85 -4.24,-4.05 -4.32,-4.91 -0.02,-0.28 0.06,-0.53 0.24,-0.8 0.11,-0.17 0.21,-0.25 0.23,-0.25 0.65,-0.1 2.74,1.3 4.43,2.42 0.43,0.28 0.89,0.59 1.36,0.91 1.41,0.93 2.79,1.88 4,2.69 4.29,2.93 4.73,3.24 5.74,2.39 0.3,-0.25 0.48,-0.64 0.48,-1.01 0,-0.8 -0.14,-0.94 -4.28,-4.61 -1.46,-1.31 -3.13,-2.78 -4.83,-4.35 -1.14,-1.05 -2.22,-1.98 -3.19,-2.8 -3.26,-2.77 -4.52,-3.99 -3.85,-4.84 0.21,-0.27 0.34,-0.28 0.4,-0.3 1.01,-0.11 3.55,1.81 6,3.67 0.79,0.6 1.63,1.24 2.52,1.9 1.52,1.13 3.01,2.24 4.32,3.24 5.08,3.84 5.37,4.02 6.24,3.91 0.4,-0.05 0.77,-0.26 1,-0.57 0.1,-0.14 0.18,-0.26 0.23,-0.4 0.34,-0.91 -0.54,-1.7 -1.64,-2.68 -0.85,-0.76 -2.07,-1.8 -3.47,-2.99 -1.46,-1.24 -3.13,-2.67 -4.83,-4.17 -0.63,-0.56 -1.22,-1.06 -1.82,-1.57 -0.3,-0.26 -0.63,-0.53 -0.92,-0.78 -2.49,-2.13 -4.87,-4.16 -5.81,-5.59 -0.42,-0.65 -0.56,-1.17 -0.27,-1.51 0.11,-0.13 0.19,-0.17 0.35,-0.18 1.79,-0.15 6.1,3.31 9.92,6.36l1.52 1.22c1.45,1.15 2.83,2.27 4.07,3.27 5.05,4.09 5.4,4.33 6.27,4.25 0.39,-0.03 0.79,-0.24 1.03,-0.53 0.22,-0.26 0.33,-0.53 0.33,-0.8 0,-0.05 -0.01,-0.1 -0.02,-0.15 0,-0.08 0,-0.17 -0.04,-0.25 -0.11,-0.4 -0.4,-0.8 -0.77,-1.2 -0.06,-0.07 -0.12,-0.14 -0.18,-0.19 -0.22,-0.23 -0.43,-0.45 -0.68,-0.69 -0.86,-0.84 -2.05,-1.97 -3.43,-3.25 -1.24,-1.16 -2.42,-2.26 -3.61,-3.41 -1.28,-1.23 -2.54,-2.3 -3.65,-3.24 -1.73,-1.47 -3.68,-3.13 -3.7,-3.89 0,-0.1 0.07,-0.23 0.23,-0.37 0.06,-0.01 0.12,-0.02 0.21,-0.02 0.18,0 0.41,0.05 0.7,0.13 1.57,0.47 4.95,2.36 12.07,7.79 0.89,0.68 1.55,1.18 1.98,1.48 0.05,0.03 0.12,0.08 0.17,0.11l0.19 0.13c0.19,0.12 0.33,0.22 0.46,0.31 6.44,4.23 10.36,6.74 12.6,4.97 0.42,-0.33 1.68,-1.34 1.23,-6.23 -0.07,-0.67 -0.14,-1.24 -0.24,-1.81 -0.04,-0.23 -0.07,-0.44 -0.11,-0.66 -0.08,-0.49 -0.19,-0.98 -0.3,-1.47 -0.07,-0.3 -0.13,-0.6 -0.22,-0.9 -0.13,-0.51 -0.27,-1 -0.41,-1.49 -0.05,-0.17 -0.1,-0.34 -0.15,-0.51 -0.22,-0.72 -0.46,-1.4 -0.7,-2.03 -0.08,-0.23 -0.14,-0.43 -0.21,-0.64 -0.02,-0.11 -0.05,-0.23 -0.06,-0.34 -0.01,-0.08 -0.02,-0.15 -0.04,-0.23 -0.01,-0.13 -0.02,-0.25 -0.02,-0.37 0,-0.05 0,-0.1 0,-0.15 0,-0.11 0,-0.23 0.02,-0.33 0,-0.06 0,-0.1 0.02,-0.15 0.01,-0.09 0.04,-0.17 0.05,-0.24 0.01,-0.06 0.04,-0.13 0.05,-0.18 0.02,-0.06 0.04,-0.11 0.06,-0.16 0.02,-0.06 0.05,-0.11 0.07,-0.16 0.64,-0.3 0.88,-0.09 1.16,0.31 0.53,0.78 1.43,2.5 2.56,4.68 4.03,7.71 10.79,20.61 18.27,25.93 0.65,0.52 8.06,6.34 17.8,10.89 -4.75,6.04 -10.21,21.18 -10.86,28.96l0 0.01zm-1.63 4.09c-0.56,-1 -1.24,-1.96 -2.05,-2.84 0.05,0.02 0.1,0.06 0.16,0.08 0.81,0.42 1.55,0.78 2.23,1.1 0.07,0.03 0.13,0.06 0.19,0.09 0.27,0.11 0.52,0.23 0.76,0.33 0.1,0.03 0.18,0.07 0.28,0.11 0.15,0.14 0.17,0.2 0.18,0.27 -0.05,0.03 -0.08,0.06 -0.15,0.09 -0.5,0.28 -1.04,0.55 -1.59,0.77l-0.01 -0.01zm87.94 -76.97c-2.54,3.66 -5.54,8.6 -8.73,13.83 -9.26,15.22 -19.77,32.46 -28.19,34.97 -1.55,0.47 -3.39,0.66 -5.42,0.66 -8.87,0 -21.28,-3.78 -28.24,-6.17 -0.15,-0.19 -0.33,-0.35 -0.57,-0.45 -11.14,-4.6 -19.92,-11.6 -20.28,-11.9 -7.02,-4.97 -13.85,-18.02 -17.52,-25.03 -1.22,-2.34 -2.11,-4.03 -2.72,-4.93 -0.28,-0.41 -0.58,-0.73 -0.88,-1 -0.04,-0.42 -0.06,-0.83 -0.1,-1.25 3.89,6.94 8.93,14.75 14.34,18.61 2.05,1.61 11.63,6.24 23.3,11.78 -1.65,1.92 -3.43,5.04 -5.06,8.64 6.86,3.69 32.09,12.12 42.46,9.02 3.88,-1.16 8.59,-6.33 13.41,-13.01 0.28,-3.94 0.56,-9.81 0.83,-15.5 0.13,-2.69 0.27,-5.43 0.4,-8 -8.07,11.93 -15.1,21.16 -19.32,21.81 -11.24,1.74 -23.24,-3.48 -29.25,-4.94 -0.33,-0.08 -0.69,-0.05 -1.05,0.08 -9.06,-4.3 -21.96,-10.43 -23.88,-11.98 -6.44,-4.55 -12.69,-15.87 -16.52,-23.12 -0.19,-5.22 -0.18,-10.47 0.04,-15.71 2.8,2.83 5.28,5.48 7.5,8.04 10.12,11.66 29.63,5.97 36.28,2.8 2.68,-1.27 4.37,-2.82 5.17,-4.69 1.49,-3.5 -0.46,-6.96 -2.19,-10 -0.22,-0.39 -0.43,-0.78 -0.65,-1.16 -1.67,-3.06 -2.69,-6.43 -3.04,-9.89 2.13,0.5 4.76,0.22 6.18,-0.01 1.88,1.05 2.4,2.53 2.9,3.99 0.41,1.2 0.99,2.88 2.74,3.38 0,0.07 0.02,0.14 0.04,0.2 0.33,1.39 1.75,2.16 3.42,3.06 1.36,0.74 2.9,1.57 3.96,2.78 2.81,6.4 8.03,9.57 14.72,8.92 8.49,-0.82 17.83,-8.76 21.16,-11.84 1.2,1.75 2.19,3.68 3.01,5.79 -3.1,7.51 -6.24,17.08 -8.62,26.42 -0.25,3.86 -0.5,9.1 -0.75,14.18 -0.19,4.13 -0.4,8.34 -0.6,11.85 3.79,-5.57 7.57,-11.79 11.03,-17.45 3.2,-5.25 6.22,-10.22 8.79,-13.93 0.34,-0.49 1.04,-0.63 1.56,-0.31 0.52,0.32 0.66,0.98 0.33,1.47l0.04 0.02zm-7.14 -16.38c0,-0.08 0.02,-0.15 0,-0.23 -1.05,-5.32 -2.9,-9.74 -5.62,-13.48 9.48,-10.98 13.09,-20.33 10.7,-27.81 -0.23,-0.72 -1.04,-1.13 -1.8,-0.91 -0.76,0.22 -1.2,0.98 -0.97,1.69 2.15,6.73 -1.5,15.5 -10.82,26.07 -0.41,0.41 -11.43,11.28 -20.57,12.16 -5.51,0.53 -9.49,-1.96 -11.82,-7.42 -0.05,-0.11 -0.11,-0.23 -0.19,-0.32 -1.4,-1.73 -3.36,-2.77 -4.93,-3.63 -0.63,-0.34 -1.51,-0.82 -1.87,-1.15 2.02,-0.74 7.58,-3.1 11.53,-7.76 0.5,-0.59 0.4,-1.44 -0.23,-1.91 -0.62,-0.47 -1.53,-0.37 -2.03,0.22 -3.95,4.66 -9.98,6.81 -10.83,7.1 -0.79,0.11 -0.88,0.05 -1.46,-1.64 -0.58,-1.68 -1.46,-4.23 -4.76,-5.79 -0.29,-0.14 -0.62,-0.17 -0.92,-0.11 -2.85,0.52 -5.95,0.39 -6.4,-0.28 -1.05,-1.6 -0.72,-3.39 -0.22,-6.07 0.87,-4.61 2.05,-10.92 -2.68,-21.46 -6.97,-14.11 -9.72,-24.94 -8.19,-32.21 13.5,2.63 20.36,-4.75 27.07,-3.31 7.02,1.5 10.08,10.68 16.87,15.84 4.02,3.06 9.36,3.43 11.81,4.57 2.5,1.16 10.22,14.74 11.72,3.84 1.29,-9.41 8.08,-11.97 12.54,-9.21 4.49,2.78 8.39,4.96 7.28,15.03 -0.31,0.48 -0.31,1.09 0.08,1.56 7.36,8.74 9.23,10.15 16.17,15.38l1.87 1.41c0.08,0.06 0.17,0.09 0.25,0.14 -11.76,21.75 -22.83,38.74 -31.58,39.69l-0.01 -0.01z"></path> </g> </svg> 