<?xml version="1.0" encoding="UTF-8"?> <!-- Creator: CorelDRAW --> <svg xmlns="http://www.w3.org/2000/svg" xmlns:xlink="http://www.w3.org/1999/xlink" xmlns:xodm="http://www.corel.com/coreldraw/odm/2003" xml:space="preserve" width="644.137mm" height="127.869mm" shape-rendering="geometricPrecision" text-rendering="geometricPrecision" image-rendering="optimizeQuality" fill-rule="evenodd" clip-rule="evenodd" viewBox="0 0 8298.6 1647.37"> <g id="Camada_x0020_1"> <metadata id="CorelCorpID_0Corel-Layer"></metadata> <path fill="white" d="M4080.37 74.57l0 680.06 -4006.85 0c-44.45,0 -73.52,29.07 -73.52,73.52l0 744.39c0,90.84 137.85,114.08 137.85,-18.38l0 -661.68 3942.52 0 0 680.06c0,98.5 137.85,97.28 137.85,0l0 -680.06 3942.52 0 0 661.68c0,129.56 137.85,112.88 137.85,18.38l0 -744.39c0,-44.45 -29.07,-73.52 -73.52,-73.52l-4006.85 0 0 -680.06c0,-99.43 -137.85,-99.43 -137.85,0z"></path> </g> </svg> 