<?xml version="1.0" encoding="UTF-8"?> <svg xmlns="http://www.w3.org/2000/svg" xmlns:xlink="http://www.w3.org/1999/xlink" version="1.1" id="Camada_1" x="0px" y="0px" viewBox="0 0 1845 510" style="enable-background:new 0 0 1845 510;" xml:space="preserve"> <style type="text/css"> .st0{fill:#2D0007;} </style> <path class="st0" d="M1864.9,271.3c-89.9-50.6-194.9-72-297.5-60.4c-69.3,7.8-135.8,30.3-200.2,52.1c-40.7,13.8-82.8,28-124.8,38.2 c-41.3,10-85.3,16.9-134.6,21.1c-65.2,5.6-149,7.1-219-30.3c-59.2-31.7-89.1-67.8-100.1-121c-6.2-30.1,4.8-66.9,24.4-82 c14-10.8,28.1-14.2,42.9-10.4c26.1,6.6,47.8,33.6,53.7,46.8c1.8,4,5.1,7.2,9.2,8.6c6.2,2.1,12.9,0.1,16.9-4.9 c29.5-36.4,50.5-46.7,83.3-40.8c16.6,3,42.8,20.1,42.8,53.3c0,32.6-19.8,64-36.4,84.5c-21.2,26.3-49.9,50.2-77.1,69.8 c-1.5,1.1-1.1,3.4,0.6,4c11.8,4,23.2,6.4,28.9,7.5c2.3,0.4,4.7,0,6.7-1.3c47.3-30,108.1-93.8,108.1-164.5c0-23-8.3-43.6-23.9-59.5 c-12.3-12.4-28.4-21.2-44.2-24.1c-43.5-7.8-72.3,7.7-98.6,35.5c-14-18.4-36.5-38.1-62.4-44.7c-23.9-6.1-47.9-0.6-69.3,15.9 c-29,22.3-44.4,70.7-35.8,112.6c12.8,62.2,48.5,106,115.7,141.9c8.7,4.7,17.8,8.9,27.1,12.6c-0.5,0.3-0.9,0.5-1.4,0.9 c-61.6,53.9-190.8,143-284.5,135c-22.3-1.9-40.8-5.7-56.6-11.5c-27.4-10.1-52-28.7-69.3-52.3l-0.1,0.1c-7.3-11.6-13.8-23.7-19.8-36 c-3.1-6.5-6.1-13.1-9-19.7c-1.3-3-2.7-6.1-4-9.2c-0.7-1.7-1.5-3.4-2.2-5.2c-0.4-1-0.9-2.1-1.3-3.1c-11.4-27.2-22.3-54.6-36.5-80.5 c-24.7-45.2-59.4-84.8-99.2-117.3C275.7,98.6,228.9,71.5,179,50.7C125.5,28.4,67.6,14.7,9.5,15c-6.7,0-13.4,0.3-20,0.7 C-16.4,16.1-21,20.9-21,26.8v8.1c0,6.4,5.4,11.5,11.9,11.1c0,0,0.1,0,0.1,0c13.9-0.8,27.8-0.8,41.6,0c6.9,0.4,13.8,1,20.7,1.8 c1.5,0.2,3,0.3,4.5,0.5c0.2,0,0.4,0.1,0.7,0.1c0.8,0.1,1.5,0.2,2.3,0.3c3.6,0.5,7.3,1.1,10.9,1.7c27.7,4.8,55,12.5,81.3,22.4 c6.3,2.4,12.8,4.7,19,7.5c-0.8-0.3-1.8-0.8,0.2,0.1c0.7,0.3,1.4,0.6,2.1,0.9c1.6,0.7,3.2,1.4,4.8,2.1c3.4,1.5,6.7,3,10.1,4.6 c11.7,5.5,23.2,11.3,34.4,17.6c21.8,12.1,42.8,25.7,62.7,40.8c0.2,0.2,0.5,0.4,0.7,0.6c0.1,0.1,0.3,0.3,0.7,0.5 c1.1,0.8,2.2,1.7,3.2,2.5c2.7,2.1,5.4,4.3,8,6.5c4.7,3.9,9.4,8,14,12.1c9.1,8.2,17.9,16.9,26.3,25.9c4.2,4.5,8.3,9.1,12.2,13.8 c2,2.3,3.9,4.7,5.9,7.1c0.9,1.1,1.7,2.1,2.6,3.2c0.4,0.5,0.8,1.1,1.2,1.6c0,0.1,0.1,0.1,0.1,0.2c7.4,9.8,14.4,19.9,20.8,30.4 c7.1,11.6,13.5,23.7,19.3,36c3.1,6.5,6.1,13.1,9,19.8c1.3,2.9,2.5,5.7,3.7,8.6c0.4,0.9,0.8,1.8,1.1,2.7c0,0.1,0.1,0.3,0.2,0.4 c0.7,1.7,1.4,3.4,2.2,5.2c11.2,26.8,22.1,53.9,36.1,79.4c3.5,6.4,7.3,12.7,11.3,18.9l-0.2,0.1c20.8,28.4,50.5,50.8,83.5,63 c18.5,6.8,39.6,11.2,64.7,13.3c5.7,0.5,11.5,0.7,17.4,0.7c43.7,0,91.8-13.4,143.2-40.1c42.6-22.1,117.2-75.5,164.1-115.3 c16.5,4.3,34,7.4,52.6,9.5c17.4,2,35.6,2.9,55.1,2.9c20,0,41.4-1,65-3c50.8-4.3,96.3-11.5,139.2-21.9c43.3-10.5,86.1-25,127.4-39 c62.8-21.2,127.7-43.2,193.8-50.7c96.2-10.9,194.6,9.2,278.9,56.6c7.3,4.1,16.4,1.7,20.7-5.4l0,0 C1875,285.2,1872.5,275.5,1864.9,271.3z"></path> </svg> 