<?xml version="1.0" encoding="UTF-8"?> <svg xmlns="http://www.w3.org/2000/svg" id="Layer_1" version="1.1" viewBox="0 0 1080 1080"><defs><style> .st0 { fill: #2d0007; } </style></defs><path class="st0" d="M570.88,542.52c-11.64,2.59-22.3,5.63-24.36,11.48-2.06,5.84,2.36,13.61,11.34,17.66,8.98,4.05,12.65,4.92,20.23,3.22,7.58-1.69,10.54-4.03,16.95-11.51,6.41-7.48,7.11-16.39,2.76-20.8-4.35-4.41-15.29-2.64-26.93-.05Z"></path><path class="st0" d="M811.12,433.68c13.51,8.25,33.9,3.99,42.98.89s15.05-7.97,18.3-11.37c9.89-10.38,10.39-24.79,10.01-36.79-.38-12.01-5.63-18.39-14.26-18.76-8.63-.38-22.48,2.67-37.15,12.76-12.01,8.25-22.51,19.14-25.51,24.39-3,5.25-7.88,20.64,5.63,28.89Z"></path><path class="st0" d="M623.07,273.78c11.79.79,10.22-5.5,3.93-10.22-6.29-4.72-28.61-11.42-45.67-.05-16.51,11.01-18.01,31.91-18.69,34.98-2.88,12.94,10.89,20.11,15.6,6.75,4.72-13.37,7.08-20.44,14.15-24.38,10.15-5.64,18.87-7.86,30.67-7.08Z"></path><path class="st0" d="M667.4,243.48c5.16-11.11,7.78-17.01,14.04-19.55,8.98-3.64,16.46-4.48,26.23-2.28,9.77,2.19,9.03-3.52,4.22-8.45-4.81-4.94-22.81-13.66-38.09-5.87-14.78,7.54-17.94,25.66-18.79,28.26-3.58,10.97,7.24,19.01,12.4,7.9Z"></path><path class="st0" d="M505.34,523.31c-8.47,1.89-13.8,10.28-11.91,18.75,1.89,8.47,10.28,13.8,18.75,11.91,8.47-1.89,13.8-10.28,11.91-18.75s-10.28-13.8-18.75-11.91Z"></path><path class="st0" d="M621.08,497.51c-8.47,1.89-13.8,10.28-11.91,18.75,1.89,8.47,10.28,13.8,18.75,11.91,8.47-1.89,13.8-10.28,11.91-18.75-1.89-8.47-10.28-13.8-18.75-11.91Z"></path><path class="st0" d="M912.11,479.27c19.59-20.65,27.98-44.26,24.93-70.19-7.2-61.19-75.87-113.93-116.16-139.93-24.93-16.08-47.57-46.57-67.55-73.47-11.61-15.63-22.58-30.39-33.73-42.35-47.78-51.19-112.98-74.93-188.55-68.57-66.6,5.58-126.06,33.53-159.51,57.82-.11.08-.25.18-.36.27-.38.28-.77.56-1.18.87-.18.13-.35.26-.54.4-.54.4-1.09.83-1.67,1.28-.03.02-.06.04-.09.07-14.51,11.21-42.91,36.77-66.7,79.92-.18.32-.35.64-.53.97-.31.57-.63,1.13-.94,1.7-101.35,83.99-158.6,207.38-157.17,339.05,2.55,234.63,195.52,427.13,430.16,429.13,1.24.01,2.46.01,3.7.01,103.93,0,204.31-37.18,283.01-104.91,9.52-8.2,15.26-20.14,15.73-32.76.48-12.78-4.43-25.3-13.48-34.34l-116.11-116.11c-16.27-16.27-42.14-18.07-60.2-4.17-31.44,24.2-69.09,37-108.88,37-98.52,0-178.67-80.15-178.67-178.67,0-5.43.28-11.12.83-16.94l7.89-38.38c.13-.5.23-1.01.31-1.52.9-4.33,1.84-8.62,2.82-12.87,2.24-9.19,5.28-20.18,8.74-31.37.43-.9.78-1.86,1.05-2.86.21-.8.4-1.59.6-2.39,6.86-21.52,15.02-42.8,21.72-52.37,1.96-2.8,3.39-4.12,4.16-4.71.2.12.41.26.62.41,1.5,1.08,3.42,2.96,4.53,4.06.03.05.06.09.09.12.11.15.22.29.32.44.08.13.17.29.22.37.23.38.47.77.55.91.06.11.18.33.23.44.33.59.66,1.21.99,1.87,1.01,1.99,2.07,4.21,3.18,6.55,4.93,10.37,11.06,23.27,20.68,32.89,1.08,1.08,2.29,1.99,3.57,2.71,2.56,1.44,5.44,2.15,8.33,2.1,3.36-.05,6.72-1.14,9.59-3.28l1.24-.93.38-.29c13.31-10,20.52-15.41,36.6-18.96.09-.02.19-.04.28-.06,1.59-.35,3.26-.67,5.03-.99.47-.08.95-.16,1.43-.24,1.04-.17,2.1-.34,3.2-.51,19.69-2.94,45.69,6.71,54.03,10.66,7.84,3.75,17.24.75,21.46-6.84.41-.74,9.41-17.03,25.62-52.32.05-.11.1-.23.16-.34.39-.85.78-1.71,1.18-2.58.11-.24.22-.48.33-.72l.18-.4c.8-1.74,1.6-3.52,2.43-5.35.36.6.72,1.23,1.09,1.9l.21.38s.18.34.19.36c.29.54.58,1.09.87,1.65l3.1,6.53c.41.92.81,1.85,1.17,2.72l4.39,11.45c1.19,3.39,2.27,6.67,3.21,9.68,1.16,3.75,2.24,7.5,2.99,10.42.13.5.26,1.01.38,1.51,0,.04.02.09.03.13.41,1.71.83,3.89,1.27,6.26.15.79.3,1.6.45,2.42,2.26,12.32,4.82,26.29,11.96,35.82.87,1.16,1.75,2.3,2.64,3.42.23.29.47.58.7.87.67.83,1.34,1.67,2.02,2.49.27.33.55.64.82.97.65.77,1.31,1.54,1.97,2.3.31.35.62.7.94,1.05.63.7,1.26,1.41,1.9,2.1.38.41.76.81,1.15,1.22.56.59,1.12,1.18,1.69,1.77.5.52,1.01,1.03,1.52,1.54.42.42.84.84,1.27,1.26.7.69,1.42,1.37,2.13,2.05.18.17.37.35.55.52,26.79,25.14,60.95,40.3,97.05,42.46,42.47,2.54,82.21-13.14,111.91-44.17.07-.08.14-.15.21-.23.05-.05.1-.11.15-.16ZM576.3,773.83c47.11,0,91.69-15.16,128.93-43.82,5.01-3.86,12.28-3.27,16.9,1.36l116.11,116.11c2.64,2.64,4.01,6.14,3.87,9.87-.13,3.57-1.67,6.79-4.32,9.07-73.6,63.34-167.62,97.88-264.99,96.94-216.87-1.84-395.22-179.76-397.57-396.61-1.07-98.59,33.48-192.13,96.43-265.39-.3,1.21-.61,2.4-.89,3.63-9.97,43.13-17.89,125.86,1.15,177.02,20.1,54.02,56.19,62.03,75.79,62.03,2.25,0,4.29-.11,6.05-.26,4.1-.36,8.14-1.07,12.03-2.09-.69,7.03-1.04,13.96-1.04,20.6,0,116.64,94.9,211.54,211.54,211.54ZM541.97,393.99c-6.05.9-11.4,1.97-16.21,3.2-14.44,3.68-24.07,8.79-33.37,15.15-2.28-4.11-4.36-8.48-6.22-12.39-1.19-2.51-2.31-4.85-3.42-7.04-.06-.12-.12-.24-.18-.35-.05-.11-.11-.21-.16-.32-.41-.8-.83-1.58-1.24-2.34-.06-.12-.14-.26-.19-.36-.02-.03-.03-.05-.04-.08-.71-1.27-1.43-2.47-2.17-3.61-.16-.25-.33-.5-.5-.73-.27-.39-.54-.79-.82-1.16-.11-.16-.22-.31-.31-.42-.18-.24-.37-.46-.55-.69-.21-.27-.42-.54-.64-.79-.5-.59-1.01-1.15-1.53-1.67-5.16-5.16-15.91-15.9-31.46-14.54-4.14.36-8.1,1.56-11.89,3.55-.31-44.19-11.03-81.43-31.38-103.73-6.11-6.7-16.51-7.18-23.22-1.06-6.71,6.12-7.18,16.51-1.06,23.22,24.1,26.41,29.65,86.66,14.55,152.07-5.18,15.95-9.67,32.79-13.21,48.46-.92,3.88-1.65,7.3-2.2,10.14-.08.36-.15.73-.23,1.1,0,.02,0,.03,0,.05-1.45,3.54-12.25,11.65-27,11.54-19.32-.11-34.73-14.17-44.58-40.63-14.62-39.29-10.87-110.81.07-158.16,5.88-25.45,14.4-47.16,23.91-65.48.12-.21.26-.42.37-.64,9.46-18.1,19.83-32.81,29.59-44.46.12-.14.23-.28.35-.42.68-.81,1.36-1.61,2.04-2.39.16-.18.31-.35.46-.53.99-1.13,1.96-2.23,2.93-3.3.57-.63,1.13-1.25,1.69-1.85.31-.34.62-.67.93-1,1.86-1.99,3.69-3.87,5.45-5.61.06-.06.12-.12.19-.18,6.64-6.57,12.46-11.47,16.77-14.8.07-.05.13-.1.2-.16.49-.38.96-.74,1.41-1.07.12-.09.25-.19.36-.27.49-.37.96-.72,1.4-1.03,33.39-24.25,97.47-52.38,164.13-52.38,49.24,0,99.89,15.35,140.59,58.96,9.9,10.61,20.33,24.65,31.37,39.52,21.65,29.15,46.18,62.18,76.12,81.49,59.4,38.32,97.28,81.74,101.33,116.15,1.88,15.94-3.37,30.2-16,43.58-27.17,24.13-60.69,35.58-94.48,32.25-27.92-2.75-53.5-15.43-73.47-36.13-.16-.17-.32-.34-.48-.5-.55-.58-1.1-1.16-1.64-1.75-.3-.33-.61-.67-.91-1.01-.42-.46-.84-.93-1.25-1.4-.4-.46-.79-.92-1.19-1.39-.32-.38-.65-.76-.97-1.14-.47-.57-.94-1.15-1.41-1.73-.24-.3-.49-.6-.73-.9-.7-.89-1.4-1.79-2.08-2.7-2.5-3.34-4.73-15.5-5.93-22.02-.68-3.74-1.33-7.27-2.08-10.41-3.44-14.37-11.03-41.04-23.32-59.04-.13-.2-.25-.41-.39-.61l-.42-.62c-.56-.83-1.13-1.63-1.65-2.33l-.73-.96c-.56-.72-1.11-1.41-1.7-2.09l-.8-.92c-.65-.72-1.3-1.39-1.96-2.05-.25-.26-.51-.51-.78-.76-2.22-2.06-4.55-3.75-6.99-5.06-.4-.21-.8-.4-1.2-.59-1.08-.51-2.12-.93-3.15-1.26-.11-.03-.22-.06-.32-.09-.02,0-.04,0-.06-.02-.42-.13-.85-.26-1.29-.36-.12-.03-.24-.05-.37-.08-1.1-.27-2.2-.49-3.34-.6-6.67-.63-15.44,1.14-23.24,11.03-.03.04-.06.07-.09.11-.29.37-.57.75-.86,1.14-.04.05-.07.1-.11.15-.03.04-.05.08-.08.11-.21.29-.42.59-.63.9-.09.12-.17.24-.26.37-.04.06-.09.14-.13.21-.74,1.12-1.48,2.33-2.19,3.62-.07.12-.14.24-.21.38-.05.09-.1.19-.14.28-.27.51-.55,1.03-.82,1.57-.07.13-.14.27-.2.4-.32.64-.63,1.31-.94,1.99-.03.06-.05.11-.08.16-.01.03-.03.06-.04.09l-3.3,7.28c-.1.21-.19.43-.29.64-.05.11-.12.26-.14.3-.46,1.01-.91,2-1.36,2.98-.07.15-.14.31-.21.46-.31.67-.61,1.32-.91,1.98-.25.55-.51,1.11-.76,1.65-.24.53-.48,1.04-.72,1.56-.3.65-.6,1.3-.9,1.93-.2.44-.41.87-.61,1.3-.33.71-.66,1.4-.98,2.09-.17.36-.33.71-.5,1.06-.36.77-.71,1.52-1.06,2.26-.13.27-.26.54-.38.81-.44.92-.87,1.83-1.29,2.71-.03.06-.06.13-.09.19-.96,2.01-1.88,3.93-2.75,5.74-.01.03-.03.05-.04.08-.41.86-.82,1.69-1.21,2.5-.06.12-.11.23-.17.35-.35.72-.69,1.42-1.02,2.1-.07.15-.15.3-.22.45-.31.63-.61,1.24-.9,1.84-.09.18-.17.35-.26.53-.28.56-.54,1.1-.81,1.63-.09.18-.18.36-.27.54-.25.51-.5,1-.74,1.49-.09.18-.18.37-.27.55-.32.63-.62,1.25-.92,1.84-14.4-4.96-37.08-10.76-58.22-7.61Z"></path></svg> 