<?xml version="1.0" encoding="UTF-8"?> <svg xmlns="http://www.w3.org/2000/svg" id="Layer_1" version="1.1" viewBox="0 0 1080 1080"><defs><style> .st0 { fill: #ebb000; } </style></defs><path class="st0" d="M571.31,542.55c-11.8,2.63-22.6,5.71-24.69,11.64-2.09,5.92,2.39,13.79,11.49,17.9,9.1,4.11,12.82,4.98,20.51,3.27,7.69-1.71,10.69-4.08,17.18-11.67,6.49-7.59,7.21-16.62,2.8-21.09-4.41-4.47-15.5-2.68-27.3-.05Z"></path><path class="st0" d="M814.85,432.22c13.69,8.37,34.36,4.05,43.57.9s15.26-8.08,18.55-11.53c10.03-10.53,10.53-25.13,10.15-37.3-.38-12.17-5.71-18.64-14.45-19.02-8.75-.38-22.79,2.71-37.66,12.93-12.17,8.37-22.82,19.4-25.87,24.73-3.04,5.33-7.99,20.92,5.71,29.29Z"></path><path class="st0" d="M624.22,270.12c11.96.8,10.36-5.58,3.99-10.36-6.38-4.78-29-11.58-46.3-.05-16.74,11.16-18.25,32.35-18.94,35.46-2.91,13.12,11.04,20.39,15.82,6.84,4.78-13.55,7.17-20.73,14.35-24.71,10.29-5.72,19.13-7.97,31.09-7.17Z"></path><path class="st0" d="M669.15,239.4c5.23-11.26,7.88-17.24,14.23-19.82,9.11-3.69,16.69-4.54,26.59-2.32,9.9,2.22,9.15-3.57,4.27-8.57-4.88-5-23.13-13.85-38.61-5.95-14.99,7.64-18.19,26.01-19.05,28.65-3.63,11.12,7.34,19.27,12.57,8.01Z"></path><path class="st0" d="M504.86,523.08c-8.58,1.91-13.99,10.42-12.08,19.01,1.91,8.58,10.42,13.99,19.01,12.08,8.58-1.91,13.99-10.42,12.08-19.01-1.91-8.58-10.42-13.99-19.01-12.08Z"></path><path class="st0" d="M622.19,496.93c-8.58,1.91-13.99,10.42-12.08,19.01,1.91,8.58,10.42,13.99,19.01,12.08,8.58-1.91,13.99-10.42,12.08-19.01-1.91-8.58-10.42-13.99-19.01-12.08Z"></path><path class="st0" d="M917.23,478.44c19.86-20.94,28.37-44.87,25.28-71.15-7.3-62.03-76.91-115.5-117.76-141.85-25.27-16.3-48.23-47.21-68.48-74.48-11.77-15.85-22.89-30.81-34.2-42.93-48.44-51.9-114.53-75.96-191.15-69.51-67.51,5.66-127.8,33.99-161.7,58.61-.11.08-.24.18-.35.26-.39.29-.79.58-1.22.9-.17.13-.35.26-.53.4-.55.41-1.12.85-1.72,1.31-.02.02-.05.04-.07.05-14.71,11.36-43.51,37.28-67.62,81.03-.18.32-.36.65-.53.97-.32.58-.64,1.15-.95,1.73-102.75,85.15-160.78,210.23-159.33,343.71,2.58,237.86,198.21,433.01,436.08,435.03,1.26.01,2.5.01,3.75.01,105.36,0,207.12-37.69,286.9-106.35,9.66-8.31,15.47-20.42,15.95-33.21.48-12.96-4.49-25.65-13.66-34.81l-117.71-117.71c-16.49-16.5-42.72-18.31-61.03-4.22-31.87,24.54-70.04,37.51-110.38,37.51-99.87,0-181.13-81.26-181.13-181.13,0-5.51.28-11.28.84-17.17l8-38.91c.13-.51.24-1.02.32-1.54.91-4.38,1.86-8.73,2.86-13.03,2.27-9.32,5.36-20.46,8.86-31.81.43-.92.79-1.88,1.06-2.9.21-.81.4-1.61.61-2.42,6.96-21.81,15.23-43.39,22.02-53.09,1.99-2.84,3.44-4.18,4.22-4.77.2.12.41.26.63.42,1.52,1.09,3.46,3,4.59,4.12.03.05.06.09.09.12.11.15.22.3.32.45.08.14.17.29.22.37.24.39.47.78.56.92.06.11.18.34.24.44.33.6.67,1.23,1,1.89,1.03,2.01,2.1,4.26,3.23,6.64,5,10.51,11.21,23.59,20.96,33.34.73.73,1.52,1.38,2.35,1.95,2.9,1.99,6.3,2.98,9.71,2.92,3.41-.06,6.82-1.15,9.72-3.33l1.26-.95.39-.29c10-7.51,16.59-12.46,25.97-15.99,0,0,0,0,0,0,4.59-1.73,9.86-3.11,16.51-4.29.47-.08.96-.17,1.45-.25,1.05-.18,2.13-.35,3.25-.52,19.96-2.98,46.32,6.81,54.77,10.81,7.95,3.8,17.48.76,21.75-6.94.42-.75,9.55-17.28,25.99-53.1.03-.07.06-.14.1-.21.41-.9.83-1.81,1.25-2.74.11-.23.21-.45.31-.68l.17-.38c.81-1.78,1.63-3.58,2.47-5.45.36.61.73,1.25,1.1,1.93l.21.39s.19.35.2.36c.3.55.59,1.11.88,1.68l3.14,6.62c.41.93.82,1.88,1.19,2.76l4.45,11.61c1.21,3.44,2.31,6.77,3.25,9.81,1.18,3.8,2.27,7.6,3.03,10.56.13.51.26,1.03.38,1.53,0,.04.02.09.03.13.42,1.74.84,3.94,1.29,6.35.15.8.3,1.62.45,2.46,2.29,12.49,4.88,26.66,12.13,36.32.88,1.17,1.77,2.33,2.67,3.47.24.3.48.59.72.89.68.84,1.35,1.68,2.04,2.51.28.33.56.66.84.99.66.78,1.32,1.56,1.99,2.32.31.36.63.71.95,1.06.64.71,1.28,1.43,1.92,2.13.38.42.77.83,1.16,1.24.57.6,1.13,1.2,1.71,1.79.51.53,1.03,1.05,1.55,1.57.43.43.85.85,1.28,1.27.71.7,1.44,1.39,2.16,2.08.19.17.37.35.56.52,27.16,25.48,61.79,40.85,98.39,43.05,43.05,2.57,83.34-13.32,113.45-44.78.07-.08.14-.16.21-.23.05-.06.1-.11.15-.17ZM576.8,777.05c47.76,0,92.96-15.36,130.71-44.42,5.08-3.91,12.44-3.32,17.14,1.38l117.71,117.71c2.67,2.68,4.07,6.23,3.93,10.01-.14,3.62-1.69,6.88-4.38,9.2-74.61,64.21-169.93,99.23-268.63,98.27-219.85-1.87-400.65-182.23-403.04-402.07-1.08-99.95,33.94-194.78,97.75-269.04-.3,1.23-.62,2.43-.91,3.68-10.11,43.72-18.14,127.59,1.16,179.46,20.38,54.77,56.97,62.88,76.84,62.88,2.28,0,4.35-.11,6.14-.26,4.16-.36,8.25-1.09,12.2-2.12-.7,7.13-1.05,14.15-1.05,20.88,0,118.25,96.2,214.45,214.45,214.45ZM542,391.98c-6.13.91-11.55,2-16.43,3.24-14.64,3.73-24.4,8.91-33.83,15.36-2.31-4.16-4.42-8.59-6.3-12.56-1.21-2.54-2.34-4.9-3.46-7.12-.06-.12-.12-.25-.19-.37-.06-.11-.11-.22-.17-.33-.42-.81-.84-1.6-1.26-2.37-.07-.12-.14-.26-.2-.36-.01-.03-.03-.05-.04-.08-.72-1.29-1.45-2.51-2.21-3.67-.17-.25-.33-.5-.5-.74-.27-.4-.55-.8-.83-1.18-.11-.16-.22-.31-.31-.43-.19-.25-.38-.46-.56-.7-.21-.27-.43-.54-.65-.8-.51-.6-1.02-1.17-1.55-1.7-5.23-5.23-16.13-16.12-31.9-14.74-4.2.37-8.22,1.58-12.05,3.6-.32-44.8-11.18-82.55-31.81-105.16-6.2-6.8-16.74-7.28-23.54-1.08-6.8,6.2-7.28,16.74-1.08,23.54,24.43,26.77,30.06,87.85,14.75,154.16-5.26,16.17-9.8,33.24-13.39,49.13-.93,3.94-1.68,7.4-2.23,10.28-.08.37-.16.74-.23,1.11,0,.02,0,.03,0,.05-1.47,3.59-12.42,11.81-27.37,11.7-19.58-.12-35.21-14.36-45.19-41.19-14.82-39.83-11.02-112.33.07-160.34,5.96-25.8,14.6-47.81,24.24-66.38.13-.22.26-.42.38-.65,9.59-18.35,20.11-33.26,30-45.08.12-.14.23-.27.35-.41.69-.82,1.38-1.64,2.07-2.43.15-.17.3-.34.45-.51,1.01-1.16,2.01-2.29,3.01-3.39.57-.63,1.14-1.25,1.7-1.86.32-.34.64-.69.95-1.02,1.89-2.01,3.73-3.91,5.52-5.68.07-.07.13-.13.2-.19,6.73-6.66,12.63-11.62,16.99-15,.07-.05.14-.1.21-.16.5-.38.97-.74,1.42-1.09.13-.09.25-.19.38-.28.5-.37.98-.73,1.41-1.04,33.85-24.59,98.81-53.1,166.38-53.1,49.92,0,101.27,15.57,142.52,59.77,10.04,10.75,20.61,24.99,31.81,40.07,21.95,29.55,46.82,63.03,77.17,82.61,60.22,38.85,98.62,82.87,102.73,117.75,1.9,16.16-3.41,30.62-16.22,44.18-27.54,24.46-61.52,36.07-95.78,32.7-28.3-2.79-54.24-15.64-74.48-36.63-.16-.17-.32-.34-.49-.51-.56-.58-1.11-1.17-1.66-1.77-.31-.34-.62-.68-.93-1.03-.42-.47-.85-.94-1.26-1.41-.41-.46-.8-.94-1.2-1.41-.33-.39-.66-.77-.98-1.16-.48-.58-.95-1.17-1.43-1.75-.24-.3-.49-.6-.74-.91-.71-.9-1.42-1.81-2.11-2.74-2.54-3.39-4.8-15.71-6.01-22.33-.69-3.79-1.35-7.37-2.11-10.56-3.49-14.56-11.19-41.61-23.64-59.85-.14-.21-.26-.41-.39-.62l-.43-.62c-.57-.84-1.15-1.65-1.67-2.36l-.74-.97c-.56-.73-1.13-1.42-1.72-2.12l-.82-.93c-.65-.73-1.31-1.41-1.99-2.07-.26-.26-.52-.52-.79-.77-2.25-2.09-4.61-3.81-7.08-5.13-.41-.22-.81-.41-1.22-.59-1.09-.52-2.15-.94-3.2-1.28-.11-.04-.22-.06-.32-.09-.02,0-.04-.01-.06-.02-.43-.13-.86-.26-1.3-.37-.12-.03-.25-.05-.37-.08-1.11-.27-2.24-.5-3.39-.61-6.76-.63-15.65,1.15-23.56,11.18-.03.04-.06.07-.08.11-.29.37-.58.76-.87,1.16-.04.05-.07.1-.11.15-.03.04-.05.08-.08.11-.21.3-.43.6-.64.92-.09.13-.17.24-.26.37-.04.07-.09.14-.13.21-.75,1.14-1.49,2.36-2.22,3.67-.07.13-.14.25-.21.38-.05.09-.1.19-.15.28-.28.52-.55,1.05-.83,1.59-.07.14-.14.27-.21.41-.32.65-.64,1.32-.96,2.01-.03.06-.05.11-.08.17-.01.03-.03.06-.04.09l-3.36,7.43c-.09.19-.18.39-.27.58-.05.11-.13.28-.14.31-.52,1.13-1.02,2.24-1.52,3.33-.02.04-.04.08-.06.12-.34.74-.67,1.45-1,2.17-.23.5-.46,1.01-.69,1.5-.27.58-.53,1.14-.79,1.71-.28.61-.57,1.23-.85,1.83-.22.48-.44.95-.66,1.42-.32.7-.65,1.38-.96,2.06-.17.36-.34.73-.51,1.09-.36.78-.72,1.54-1.08,2.29-.13.28-.26.55-.39.83-.42.89-.83,1.75-1.24,2.61-.06.12-.12.24-.17.36-.97,2.03-1.89,3.96-2.78,5.79-.01.03-.03.05-.04.08-.42.87-.83,1.71-1.23,2.54-.06.12-.11.23-.17.35-.35.73-.7,1.44-1.04,2.13-.08.15-.15.31-.22.46-.31.64-.62,1.26-.91,1.86-.09.18-.18.36-.26.54-.28.57-.55,1.11-.82,1.65-.09.18-.18.37-.27.55-.26.52-.5,1.02-.75,1.51-.09.18-.19.38-.28.56-.32.64-.63,1.26-.93,1.86-14.6-5.03-37.59-10.91-59.02-7.71Z"></path></svg> 