<?xml version="1.0" encoding="UTF-8"?> <svg xmlns="http://www.w3.org/2000/svg" width="512" height="267" viewBox="0 0 512 267" fill="none"> <path d="M-57 220.376C-40.0915 227.455 21.0196 287.977 83.229 253.412C109.659 238.73 123.427 214.35 111.667 163.579C105.224 135.75 108.965 114.027 126.63 99.979C165.107 69.3817 198.983 107.22 213.695 120.708C225.918 131.913 238.141 140.06 233.555 147.192C226.039 158.885 211.206 144.102 203 138.026C189.248 127.841 174.687 138.381 161.75 148.211C149.017 157.887 129.156 174.695 133.232 185.39C139.037 200.628 173.914 185.035 170.92 175.714C164.748 170.269 150.42 182.738 147.205 193.116C145.71 197.939 146.971 206.846 151.569 209.836C161.754 216.455 190.785 202.708 187.064 195.112C181.105 188.952 171.638 199.329 166.339 205.76C163.859 208.767 158.125 223.755 172.449 227.659C178.053 229.188 204.533 225.112 203.514 214.927C202.808 207.869 194.393 212.233 191.8 214.417C188.196 217.457 183.607 225.588 182.634 230.207C180.596 239.882 193.441 248.518 206.57 240.392C233.935 223.45 246.184 211.828 268.7 188.447C281.942 174.695 302.313 153.306 299.256 127.332C294.353 85.6596 245.273 75.3825 222.865 97.2813C216.3 103.7 219.808 115.104 232.541 108.995C252.038 99.6365 305.785 55.4609 361 73C404.288 86.7515 460 83.2813 509.5 -20" stroke="#2D0007" stroke-width="5" stroke-linecap="round" stroke-linejoin="round"></path> </svg> 