<?xml version="1.0" encoding="UTF-8"?> <svg xmlns="http://www.w3.org/2000/svg" width="440" height="217" viewBox="0 0 440 217" fill="none"> <path d="M3 242C38.5 164.383 106.43 166.765 167.779 147.728C195.6 139.092 216.951 101.336 217.612 87.3174C217.916 80.9044 215.818 71.9271 211.096 67.577C197.465 55.0209 188.419 70.9127 188.51 79.324C188.628 90.049 190.136 106.199 208.015 115.777C216.97 120.575 230.08 107.464 234.556 99.1479C242.317 84.7302 242.625 75.1411 247.203 59.4203C251.785 43.6994 253.81 28.2027 246.705 13.4506C242.549 4.81513 226.559 -4.45479 219.564 12.4058C213.976 25.8738 224.659 51.746 228.8 60.7728C232.299 68.4053 238.222 77.6524 244.506 83.2219C250.79 88.7915 268.452 93.0693 281.882 79.0011C297.762 62.3646 303.313 42.9016 298.191 20.4828C295.635 9.29052 285.4 -3.17824 273.569 10.5709C269.804 14.9475 268.3 24.9468 268.133 30.7177C267.422 55.1804 268.019 77.8119 285.704 94.7295C299.525 107.951 333.212 100.728 333.687 76.7634C333.789 71.6535 334.006 63.0143 325.051 60.7766C317.297 58.839 311.899 64.0324 309.384 67.4935C302.762 76.6038 301.527 92.6666 305.227 103.308C308.924 113.949 318.711 121.084 325.374 130.168C332.41 139.761 337.239 154.726 334.01 164.383C330.549 174.736 319.208 175.051 308.43 173.338C297.652 171.624 280.548 158.871 269.74 157.351C254.251 155.174 243.738 166.659 229.45 173.019C224.431 175.252 209.823 180.112 203.228 168.862C197.791 159.589 203.414 143.036 237.443 118.979C243.218 114.899 257.267 104.588 273.896 109.706C297.318 116.913 307.758 134.951 331.305 141.74C384.155 156.979 448.907 134.146 502.631 111.56C502.631 111.56 615.599 56.8786 780.345 135.187" stroke="#2D0007" stroke-width="5" stroke-linejoin="round"></path> </svg> 